# Blender v2.83.4 OBJ File: ''
# www.blender.org
mtllib 020.mtl
o roadTile_013.001
v 1.500000 0.455000 0.750000
v 1.500000 0.300000 0.750000
v 1.500000 0.300000 -0.750000
v 1.500000 0.455000 -0.750000
v 1.500000 0.000000 -1.500000
v 1.500000 0.550000 -1.500000
v 1.500000 0.550000 -0.750000
v 1.500000 0.550000 0.750000
v 1.500000 0.550000 1.500000
v 1.500000 0.000000 1.500000
v -0.750000 0.455000 -1.500000
v -0.750000 0.300000 -1.500000
v 0.750000 0.300000 -1.500000
v 0.750000 0.455000 -1.500000
v 0.750000 0.550000 -1.500000
v -1.500000 0.000000 -1.500000
v -1.500000 0.550000 -1.500000
v -0.750000 0.550000 -1.500000
v -0.562500 0.455000 0.750000
v -0.750000 0.455000 1.500000
v 0.750000 0.455000 1.500000
v 0.890440 0.455000 0.885852
v 0.975230 0.455000 -0.972520
v -0.937500 0.455000 -0.750000
v -0.562500 0.550000 0.750000
v -0.750000 0.550000 1.500000
v -0.937500 0.550000 -0.750000
v -1.500000 0.550000 1.500000
v -1.500000 0.000000 1.500000
v 0.750000 0.550000 1.500000
v 0.750000 0.300000 1.500000
v -0.750000 0.300000 1.500000
v 0.890440 0.550000 0.885852
v 0.975230 0.550000 -0.972520
vt 0.750000 0.455000
vt 0.750000 0.300000
vt 2.250000 0.300000
vt 2.250000 0.455000
vt -2.250000 0.455000
vt -2.250000 0.300000
vt -0.750000 0.300000
vt -0.750000 0.455000
vt 0.937500 0.750000
vt 0.750000 0.000000
vt 2.250000 0.000000
vt 2.390440 0.614148
vt 3.000000 0.750000
vt 3.000000 2.250000
vt 2.475230 2.472520
vt 2.250000 3.000000
vt 0.750000 3.000000
vt 0.562500 2.250000
vt 0.181902 0.455000
vt 0.954984 0.455000
vt 0.954984 0.550000
vt 0.181902 0.550000
vt 0.500230 0.455000
vt 2.046390 0.455000
vt 2.046390 0.550000
vt 0.500230 0.550000
vt 2.319250 0.455000
vt 3.092330 0.455000
vt 3.092330 0.550000
vt 2.319250 0.550000
vt -3.091310 0.455000
vt -2.466790 0.455000
vt -2.466790 0.550000
vt -3.091310 0.550000
vt -1.131560 0.455000
vt -0.501558 0.455000
vt -0.501558 0.550000
vt -1.131560 0.550000
vt 0.750000 0.455000
vt 0.750000 0.300000
vt 2.250000 0.300000
vt 2.250000 0.455000
vt 1.313590 0.455000
vt 1.883590 0.455000
vt 1.883590 0.550000
vt 1.313590 0.550000
vt -1.875460 0.455000
vt -1.301910 0.455000
vt -1.301910 0.550000
vt -1.875460 0.550000
vt 3.000000 0.000000
vt 3.000000 0.550000
vt 2.250000 0.550000
vt 0.750000 0.550000
vt 0.000000 0.550000
vt 0.000000 0.000000
vt -2.250000 0.550000
vt -3.000000 0.550000
vt -3.000000 0.000000
vt -0.000000 0.000000
vt -0.000000 0.550000
vt -0.750000 0.550000
vt 0.750000 0.000000
vt 0.937500 0.750000
vt 0.562500 2.250000
vt 0.750000 3.000000
vt 0.000000 3.000000
vt 0.000000 0.000000
vt -3.000000 0.000000
vt 0.000000 0.000000
vt -0.000000 0.550000
vt -3.000000 0.550000
vt -3.000000 0.000000
vt -0.000000 3.000000
vt -3.000000 3.000000
vt 3.000000 0.000000
vt 3.000000 0.550000
vt 2.250000 0.550000
vt 0.750000 0.550000
vt 3.000000 0.000000
vt 3.000000 0.750000
vt 2.390440 0.614148
vt 2.250000 0.000000
vt 3.000000 3.000000
vt 2.250000 3.000000
vt 2.475230 2.472520
vt 3.000000 2.250000
vn 1.0000 0.0000 0.0000
vn 0.0000 0.0000 -1.0000
vn 0.0000 1.0000 0.0000
vn 0.9701 0.0000 0.2425
vn 0.9701 0.0000 -0.2425
vn -0.2175 0.0000 -0.9761
vn -0.9748 0.0000 -0.2229
vn -0.0000 -0.0000 1.0000
vn -0.3904 -0.0000 0.9207
vn -0.9197 0.0000 0.3927
vn -1.0000 0.0000 0.0000
vn -0.0000 -1.0000 -0.0000
usemtl Alternate_Dirt.011
s 1
f 1/1/1 2/2/1 3/3/1 4/4/1
f 14/5/2 13/6/2 12/7/2 11/8/2
f 19/9/3 20/10/3 21/11/3 22/12/3 1/13/3 4/14/3 23/15/3 14/16/3 11/17/3 24/18/3
f 20/19/4 19/20/4 25/21/4 26/22/4
f 19/23/5 24/24/5 27/25/5 25/26/5
f 24/27/4 11/28/4 18/29/4 27/30/4
f 1/31/6 22/32/6 33/33/6 8/34/6
f 22/35/7 21/36/7 30/37/7 33/38/7
f 20/39/8 32/40/8 31/41/8 21/42/8
f 23/43/9 4/44/9 7/45/9 34/46/9
f 14/47/10 23/48/10 34/49/10 15/50/10
usemtl Grass.037
f 5/51/1 6/52/1 7/53/1 4/4/1 3/3/1 2/2/1 1/1/1 8/54/1 9/55/1 10/56/1
f 11/8/2 12/7/2 13/6/2 14/5/2 15/57/2 6/58/2 5/59/2 16/60/2 17/61/2 18/62/2
f 26/63/3 25/64/3 27/65/3 18/66/3 17/67/3 28/68/3
f 16/69/11 29/70/11 28/71/11 17/72/11
f 10/73/12 29/70/12 16/74/12 5/75/12
f 29/70/8 10/76/8 9/77/8 30/78/8 21/42/8 31/41/8 32/40/8 20/39/8 26/79/8 28/71/8
f 9/80/3 8/81/3 33/82/3 30/83/3
f 6/84/3 15/85/3 34/86/3 7/87/3
