# Blender v2.83.4 OBJ File: ''
# www.blender.org
mtllib 025.mtl
o roadTile_018.001
v 0.750000 0.730000 0.562500
v -0.750000 1.280000 0.937500
v -0.750000 1.375000 0.937500
v 0.750000 0.825000 0.562500
v 1.500000 0.455000 0.750000
v 1.500000 0.455000 -0.750000
v 0.750000 0.730000 -0.937500
v 0.000000 1.005000 -0.750000
v -0.750000 1.280000 -0.562500
v -1.500000 1.555000 -0.750000
v -1.500000 1.555000 0.750000
v 1.500000 0.550000 0.750000
v -1.500000 1.650000 0.750000
v -1.500000 1.650000 1.500000
v 1.500000 0.550000 1.500000
v -1.500000 1.375000 0.750000
v -1.500000 1.375000 -0.750000
v -1.500000 1.650000 -0.750000
v -1.500000 1.650000 -1.500000
v -1.500000 0.000000 -1.500000
v -1.500000 0.000000 1.500000
v -0.750000 1.375000 -0.562500
v 0.750000 0.825000 -0.937500
v 1.500000 0.550000 -0.750000
v 1.500000 0.275000 -0.750000
v 1.500000 0.275000 0.750000
v 1.500000 0.000000 1.500000
v 1.500000 0.000000 -1.500000
v 1.500000 0.550000 -1.500000
vt -2.410200 0.730000
vt -0.864033 1.280000
vt -0.864033 1.375000
vt -2.410200 0.825000
vt 0.937500 -1.861170
vt 0.750000 -2.659990
vt 2.250000 -2.659990
vt 2.437500 -1.861170
vt 2.250000 -1.062340
vt 2.062500 -0.263511
vt 2.250000 0.535316
vt 0.750000 0.535316
vt 0.562500 -0.263511
vt -2.728530 0.455000
vt -1.955440 0.730000
vt -1.955440 0.825000
vt -2.728530 0.550000
vt -0.591181 1.280000
vt 0.181902 1.555000
vt 0.181902 1.650000
vt -0.591181 1.375000
vt -0.750000 1.555000
vt -2.250000 1.555000
vt -2.250000 1.375000
vt -0.750000 1.375000
vt -0.545705 1.555000
vt 0.227377 1.280000
vt 0.227377 1.375000
vt -0.545705 1.650000
vt 2.000920 1.005000
vt 2.774000 0.730000
vt 2.774000 0.825000
vt 1.227840 1.375000
vt 1.227840 1.280000
vt 1.591640 0.730000
vt 2.364720 0.455000
vt 2.364720 0.550000
vt 1.591640 0.825000
vt 2.250000 0.455000
vt 0.750000 0.455000
vt 0.750000 0.275000
vt 2.250000 0.275000
vt 0.750000 0.568020
vt -0.000000 0.568020
vt -0.000000 -2.627290
vt 0.750000 -2.627290
vt 0.937500 -1.828460
vt 0.562500 -0.230807
vt -0.750000 1.650000
vt -2.250000 1.650000
vt -3.000000 1.650000
vt -3.000000 -0.000000
vt -0.000000 -0.000000
vt 0.000000 1.650000
vt 2.250000 0.550000
vt 0.750000 0.550000
vt 0.000000 0.550000
vt 0.000000 -0.000000
vt 3.000000 -0.000000
vt 3.000000 0.550000
vt 3.000000 -0.000000
vt 3.000000 0.550000
vt 0.000000 3.000000
vt -3.000000 3.000000
vt -3.000000 0.000000
vt -3.000000 -0.000000
vt -0.000000 -0.000000
vt -0.000000 1.650000
vt -3.000000 0.550000
vt 2.250000 -2.627290
vt 3.000000 -2.627290
vt 3.000000 0.568020
vt 2.250000 0.568020
vt 2.062500 -0.230807
vt 2.437500 -1.828460
vt -88.582703 -41.824402
vt -81.200798 -10.374500
vt -88.582703 21.075399
vn -0.2425 0.0000 -0.9701
vn 0.3443 0.9389 0.0000
vn 0.2425 0.0000 -0.9701
vn -1.0000 -0.0000 0.0000
vn -0.2425 -0.0000 0.9701
vn 0.2425 -0.0000 0.9701
vn 1.0000 -0.0000 0.0000
vn 0.0000 -0.0000 1.0000
vn 0.0000 -1.0000 -0.0000
vn 0.0000 0.0000 -1.0000
vn -0.3443 -0.9389 -0.0000
usemtl Alternate_Dirt.016
s 1
f 1/1/1 2/2/1 3/3/1 4/4/1
f 1/5/2 5/6/2 6/7/2 7/8/2 8/9/2 9/10/2 10/11/2 11/12/2 2/13/2
f 5/14/3 1/15/3 4/16/3 12/17/3
f 2/18/3 11/19/3 13/20/3 3/21/3
f 11/22/4 10/23/4 17/24/4 16/25/4
f 10/26/5 9/27/5 22/28/5 18/29/5
f 8/30/6 7/31/6 23/32/6 22/33/6 9/34/6
f 7/35/5 6/36/5 24/37/5 23/38/5
f 6/39/7 5/40/7 26/41/7 25/42/7
usemtl Grass.042
f 13/43/2 14/44/2 15/45/2 12/46/2 4/47/2 3/48/2
f 13/49/4 11/22/4 16/25/4 17/24/4 10/23/4 18/50/4 19/51/4 20/52/4 21/53/4 14/54/4
f 24/55/7 6/39/7 25/42/7 26/41/7 5/40/7 12/56/7 15/57/7 27/58/7 28/59/7 29/60/7
f 21/53/8 27/61/8 15/62/8 14/54/8
f 21/53/9 20/63/9 28/64/9 27/65/9
f 28/66/10 20/67/10 19/68/10 29/69/10
f 24/70/2 29/71/2 19/72/2 18/73/2 22/74/2 23/75/2
usemtl FrontColor.004
f 8/76/11 9/77/11 10/78/11
