# Blender v2.83.4 OBJ File: ''
# www.blender.org
mtllib 028.mtl
o roadTile_021.001
v -1.500000 1.650000 1.500000
v 1.397780 0.550000 0.723543
v 1.271640 0.550000 0.351950
v 1.474330 0.550000 1.108421
v 1.500000 0.550000 1.500000
v -1.500000 0.000000 1.500000
v 1.500000 0.000000 1.500000
v -1.500000 0.000000 -1.500000
v -1.108421 0.000000 -1.474330
v -0.723543 0.000000 -1.397780
v -0.351950 0.000000 -1.271640
v 0.000000 0.000000 -1.098080
v 0.326280 0.000000 -0.880060
v 0.621320 0.000000 -0.621320
v 0.880060 0.000000 -0.326280
v 1.098080 0.000000 0.000000
v 1.271640 0.000000 0.351950
v 1.397780 0.000000 0.723543
v 1.474330 0.000000 1.108421
v -1.500000 0.550000 -1.500000
v -1.108421 0.550000 -1.474330
v -0.723543 0.550000 -1.397780
v -0.351950 0.550000 -1.271640
v 0.000000 0.550000 -1.098080
v 0.326280 0.550000 -0.880060
v 0.621320 0.550000 -0.621320
v 0.880060 0.550000 -0.326280
v 1.098080 0.550000 0.000000
vt -0.000000 0.569094
vt -0.196209 -2.620190
vt 0.196209 -2.620190
vt -0.196209 -2.620190
vt 0.196209 -2.620190
vt -0.196209 -2.620190
vt 0.196209 -2.620190
vt 0.000000 -0.000000
vt 3.000000 -0.000000
vt 3.000000 0.550000
vt 0.000000 1.650000
vt 0.000000 3.000000
vt -0.391579 2.974330
vt -0.776457 2.897780
vt -1.148050 2.771640
vt -1.500000 2.598080
vt -1.826280 2.380060
vt -2.121320 2.121320
vt -2.380060 1.826280
vt -2.598080 1.500000
vt -2.771640 1.148050
vt -2.897780 0.776457
vt -2.974330 0.391579
vt -3.000000 0.000000
vt -3.000000 0.550000
vt -3.000000 0.000000
vt -0.196209 0.000000
vt 0.196209 0.000000
vt 0.196209 0.550000
vt -0.196209 0.550000
vt -0.196209 -2.620190
vt 0.196209 -2.620190
vt -0.196209 -2.620190
vt 0.196209 -2.620190
vt -0.196209 -2.620190
vt 0.196209 -2.620190
vt -0.196209 -2.620190
vt 0.196209 -2.620190
vt -0.196209 -2.620190
vt 0.196209 -2.620190
vt -0.196209 -2.620190
vt 0.196209 -2.620190
vt -0.196209 -2.620190
vt 0.196209 -2.620190
vt -0.196209 -2.620190
vt 0.196209 -2.620190
vt -0.196209 -2.620190
vt 0.196209 -2.620190
vt -0.196209 0.000000
vt 0.196209 0.000000
vt 0.196209 0.550000
vt -0.196209 0.550000
vt -0.196209 0.000000
vt 0.196209 0.000000
vt 0.196209 0.550000
vt -0.196209 0.550000
vt -0.196209 0.000000
vt 0.196209 0.000000
vt 0.196209 0.550000
vt -0.196209 0.550000
vt -0.196209 0.000000
vt 0.196209 0.000000
vt 0.196209 0.550000
vt -0.196209 0.550000
vt -0.196209 0.000000
vt 0.196209 0.000000
vt 0.196209 0.550000
vt -0.196209 0.550000
vt -0.196209 0.000000
vt 0.196209 0.000000
vt 0.196209 0.550000
vt -0.196209 0.550000
vt -0.196209 0.000000
vt 0.196209 0.000000
vt 0.196209 0.550000
vt -0.196209 0.550000
vt -0.196209 0.000000
vt 0.196209 0.000000
vt 0.196209 0.550000
vt -0.196209 0.550000
vt -0.196209 0.000000
vt 0.196209 0.000000
vt 0.196209 0.550000
vt -0.196209 0.550000
vt -0.196209 0.000000
vt 0.196209 0.000000
vt 0.196209 0.550000
vt -0.196209 0.550000
vt -0.196209 0.000000
vt 0.196209 0.000000
vt 0.196209 0.550000
vt -0.196209 0.550000
vn 0.2222 0.9493 -0.2222
vn 0.3325 0.9389 -0.0891
vn 0.3181 0.9389 -0.1317
vn 0.3413 0.9389 -0.0449
vn 0.3442 0.9386 -0.0226
vn 0.0000 -0.0000 1.0000
vn -0.0000 -1.0000 -0.0000
vn -1.0000 0.0000 0.0000
vn 0.1305 0.0000 -0.9914
vn 0.0654 0.0000 -0.9979
vn 0.0449 0.9389 -0.3413
vn 0.0226 0.9386 -0.3442
vn 0.0891 0.9389 -0.3325
vn 0.1317 0.9389 -0.3180
vn 0.1721 0.9389 -0.2981
vn 0.2096 0.9389 -0.2731
vn 0.2434 0.9389 -0.2434
vn 0.2731 0.9389 -0.2096
vn 0.2981 0.9389 -0.1721
vn 0.9239 0.0000 -0.3827
vn 0.8660 0.0000 -0.5000
vn 0.7934 0.0000 -0.6088
vn 0.7071 0.0000 -0.7071
vn 0.6088 0.0000 -0.7934
vn 0.5000 0.0000 -0.8660
vn 0.3827 0.0000 -0.9239
vn 0.2588 0.0000 -0.9659
vn 0.9659 0.0000 -0.2588
vn 0.9914 0.0000 -0.1305
vn 0.9979 0.0000 -0.0654
usemtl Grass.045
s 1
f 1/1/1 2/2/2 3/3/3
f 1/1/1 4/4/4 2/5/2
f 1/1/1 5/6/5 4/7/4
f 6/8/6 7/9/6 5/10/6 1/11/6
f 6/8/7 8/12/7 9/13/7 10/14/7 11/15/7 12/16/7 13/17/7 14/18/7 15/19/7 16/20/7 17/21/7 18/22/7 19/23/7 7/24/7
f 20/25/8 8/26/8 6/8/8 1/11/8
f 9/27/9 8/28/10 20/29/10 21/30/9
f 1/1/1 21/31/11 20/32/12
f 1/1/1 22/33/13 21/34/11
f 1/1/1 23/35/14 22/36/13
f 1/1/1 24/37/15 23/38/14
f 1/1/1 25/39/16 24/40/15
f 1/1/1 26/41/17 25/42/16
f 1/1/1 27/43/18 26/44/17
f 1/1/1 28/45/19 27/46/18
f 1/1/1 3/47/3 28/48/19
f 17/49/20 16/50/21 28/51/21 3/52/20
f 16/53/21 15/54/22 27/55/22 28/56/21
f 15/57/22 14/58/23 26/59/23 27/60/22
f 14/61/23 13/62/24 25/63/24 26/64/23
f 13/65/24 12/66/25 24/67/25 25/68/24
f 12/69/25 11/70/26 23/71/26 24/72/25
f 11/73/26 10/74/27 22/75/27 23/76/26
f 10/77/27 9/78/9 21/79/9 22/80/27
f 18/81/28 17/82/20 3/83/20 2/84/28
f 19/85/29 18/86/28 2/87/28 4/88/29
f 7/89/30 19/90/29 4/91/29 5/92/30
