# Blender v2.83.4 OBJ File: ''
# www.blender.org
mtllib 029.mtl
o roadTile_022.001
v 1.035670 0.455000 -1.006750
v 0.750000 0.455000 -1.500000
v -0.750000 0.455000 -1.500000
v -0.501812 0.455000 -0.398550
v 0.456180 0.455000 0.528858
v 1.500000 0.455000 0.750000
v 1.500000 0.455000 -0.750000
v 1.035670 0.550000 -1.006750
v 0.750000 0.550000 -1.500000
v 1.500000 0.550000 -0.750000
v 1.500000 0.000000 -1.500000
v 1.500000 0.550000 -1.500000
v 1.500000 0.300000 -0.750000
v 1.500000 0.300000 0.750000
v 1.500000 0.550000 0.750000
v 1.500000 0.550000 1.500000
v 1.500000 0.000000 1.500000
v -1.500000 0.000000 -1.500000
v -1.500000 0.550000 -1.500000
v -0.750000 0.550000 -1.500000
v -0.750000 0.300000 -1.500000
v 0.750000 0.300000 -1.500000
v -1.500000 0.000000 1.500000
v -1.500000 0.550000 1.500000
v 0.456180 0.550000 0.528858
v -0.501812 0.550000 -0.398550
vt 2.535670 2.506750
vt 2.250000 3.000000
vt 0.750000 3.000000
vt 0.998188 1.898550
vt 1.956180 0.971142
vt 3.000000 0.750000
vt 3.000000 2.250000
vt -1.468380 0.455000
vt -0.898378 0.455000
vt -0.898378 0.550000
vt -1.468380 0.550000
vt 1.005990 0.455000
vt 1.536570 0.455000
vt 1.536570 0.550000
vt 1.005990 0.550000
vt -0.730004 0.455000
vt 0.603348 0.455000
vt 0.603348 0.550000
vt -0.730004 0.550000
vt 1.632690 0.455000
vt 2.761760 0.455000
vt 2.761760 0.550000
vt 1.632690 0.550000
vt -2.779420 0.455000
vt -1.712430 0.455000
vt -1.712430 0.550000
vt -2.779420 0.550000
vt -2.250000 0.455000
vt -2.250000 0.300000
vt -0.750000 0.300000
vt -0.750000 0.455000
vt 0.750000 0.455000
vt 0.750000 0.300000
vt 2.250000 0.300000
vt 2.250000 0.455000
vt 3.000000 0.000000
vt 3.000000 0.550000
vt 2.250000 0.550000
vt 0.750000 0.550000
vt 0.000000 0.550000
vt 0.000000 0.000000
vt -3.000000 0.550000
vt -3.000000 0.000000
vt -0.000000 0.000000
vt -0.000000 0.550000
vt -0.750000 0.550000
vt -2.250000 0.550000
vt -0.000000 3.000000
vt -3.000000 3.000000
vt -3.000000 -0.000000
vt -0.000000 -0.000000
vt 3.000000 0.000000
vt 3.000000 0.550000
vt 0.000000 0.550000
vt 1.956180 0.971142
vt 0.998188 1.898550
vt 0.750000 3.000000
vt 0.000000 3.000000
vt 0.000000 0.000000
vt 3.000000 0.000000
vt 3.000000 0.750000
vt -3.000000 0.000000
vt -3.000000 0.550000
vt 3.000000 3.000000
vt 2.250000 3.000000
vt 2.535670 2.506750
vt 3.000000 2.250000
vn -0.0000 1.0000 0.0000
vn -0.8653 0.0000 0.5012
vn -0.4839 0.0000 0.8751
vn 0.6955 0.0000 -0.7185
vn 0.9755 0.0000 -0.2198
vn 0.2073 0.0000 -0.9783
vn -0.0000 0.0000 -1.0000
vn 1.0000 0.0000 0.0000
vn 0.0000 -1.0000 -0.0000
vn 0.0000 -0.0000 1.0000
vn -1.0000 0.0000 0.0000
usemtl Alternate_Dirt.019
s 1
f 1/1/1 2/2/1 3/3/1 4/4/1 5/5/1 6/6/1 7/7/1
f 2/8/2 1/9/2 8/10/2 9/11/2
f 1/12/3 7/13/3 10/14/3 8/15/3
f 5/16/4 4/17/4 26/18/4 25/19/4
f 4/20/5 3/21/5 20/22/5 26/23/5
f 6/24/6 5/25/6 25/26/6 15/27/6
f 2/28/7 22/29/7 21/30/7 3/31/7
f 6/32/8 14/33/8 13/34/8 7/35/8
usemtl Grass.046
f 11/36/8 12/37/8 10/38/8 7/35/8 13/34/8 14/33/8 6/32/8 15/39/8 16/40/8 17/41/8
f 12/42/7 11/43/7 18/44/7 19/45/7 20/46/7 3/31/7 21/30/7 22/29/7 2/28/7 9/47/7
f 18/48/9 11/49/9 17/50/9 23/51/9
f 23/51/10 17/52/10 16/53/10 24/54/10
f 25/55/1 26/56/1 20/57/1 19/58/1 24/59/1 16/60/1 15/61/1
f 18/62/11 23/51/11 24/54/11 19/63/11
f 12/64/1 9/65/1 8/66/1 10/67/1
