# Blender v2.83.4 OBJ File: ''
# www.blender.org
mtllib 030.mtl
o roadTile_024.001
v 0.750000 0.705000 -0.750000
v 1.215000 0.550000 -0.750000
v -1.215000 0.550000 -0.750000
v -0.750000 0.705000 -0.750000
v 0.750000 0.705000 0.750000
v 1.215000 0.550000 0.750000
v 1.500000 0.455000 0.750000
v 1.500000 0.455000 -0.750000
v -0.750000 0.705000 0.750000
v -1.500000 0.455000 -0.750000
v -1.500000 0.455000 0.750000
v -1.215000 0.550000 0.750000
v -1.500000 0.550000 -0.750000
v -1.500000 0.550000 -1.500000
v -1.500000 0.000000 -1.500000
v -1.500000 0.000000 1.500000
v -1.500000 0.550000 1.500000
v -1.500000 0.550000 0.750000
v -1.500000 0.300000 0.750000
v -1.500000 0.300000 -0.750000
v 1.500000 0.000000 -1.500000
v 1.500000 0.550000 -1.500000
v 1.500000 0.000000 1.500000
v 1.500000 0.550000 1.500000
v 1.500000 0.550000 -0.750000
v 1.500000 0.300000 -0.750000
v 1.500000 0.300000 0.750000
v 1.500000 0.550000 0.750000
vt -2.250000 0.705000
vt -2.715000 0.550000
vt -0.285000 0.550000
vt -0.750000 0.705000
vt 2.250000 -2.401750
vt 2.250000 -1.911600
vt 0.750000 -1.911600
vt 0.750000 -2.401750
vt 0.750000 -2.702170
vt 2.250000 -2.702170
vt 2.250000 2.250000
vt 0.750000 2.250000
vt 0.750000 0.750000
vt 2.250000 0.750000
vt -2.250000 0.934453
vt -2.250000 0.444300
vt -2.250000 0.143884
vt -0.750000 0.143884
vt -0.750000 0.444300
vt -0.750000 0.934453
vt 0.000000 0.550000
vt 0.000000 0.455000
vt 0.285000 0.550000
vt -3.000000 0.550000
vt -3.000000 0.455000
vt -2.715000 0.550000
vt 3.000000 0.455000
vt 2.715000 0.550000
vt 0.285000 0.550000
vt 0.000000 0.455000
vt 0.750000 0.705000
vt 2.250000 0.705000
vt -0.000000 0.550000
vt -0.285000 0.550000
vt 0.750000 0.455000
vt 0.750000 0.300000
vt 2.250000 0.300000
vt 2.250000 0.455000
vt -3.000000 0.455000
vt 3.000000 0.550000
vt 2.715000 0.550000
vt 3.000000 0.455000
vt -2.250000 0.455000
vt -2.250000 0.300000
vt -0.750000 0.300000
vt -0.750000 0.455000
vt -3.000000 0.550000
vt -3.000000 0.000000
vt 0.000000 0.000000
vt 0.000000 0.550000
vt -0.750000 0.550000
vt -2.250000 0.550000
vt -3.000000 0.000000
vt -0.000000 0.000000
vt -0.000000 0.550000
vt -3.000000 0.550000
vt -0.000000 3.000000
vt -3.000000 3.000000
vt -3.000000 0.000000
vt 0.000000 0.550000
vt 0.000000 0.000000
vt 3.000000 0.000000
vt 3.000000 0.550000
vt 2.250000 0.550000
vt 0.750000 0.550000
vt 3.000000 -0.000000
vt 3.000000 0.550000
vt 0.000000 0.750000
vt 0.000000 0.000000
vt 3.000000 0.000000
vt 3.000000 0.750000
vt 2.715000 0.750000
vt 0.285000 0.750000
vt 3.000000 0.750000
vt 3.000000 2.250000
vt 0.000000 2.250000
vt 0.000000 0.750000
vt 0.000000 3.000000
vt 0.000000 2.250000
vt 0.285000 2.250000
vt 2.715000 2.250000
vt 3.000000 2.250000
vt 3.000000 3.000000
vn 0.0000 0.0000 -1.0000
vn 0.3162 0.9487 0.0000
vn 0.1602 0.9871 0.0000
vn -0.1602 0.9871 0.0000
vn -0.3162 0.9487 0.0000
vn 0.0000 -0.0000 1.0000
vn 1.0000 0.0000 0.0000
vn -1.0000 0.0000 0.0000
vn 0.0000 -1.0000 -0.0000
vn 0.0000 1.0000 0.0000
usemtl Alternate_Dirt.021
s 1
f 1/1/1 2/2/1 3/3/1 4/4/1
f 2/5/2 1/6/3 5/7/3 6/8/2 7/9/2 8/10/2
f 1/11/3 4/12/4 9/13/4 5/14/3
f 4/15/4 3/16/5 10/17/5 11/18/5 12/19/5 9/20/4
f 13/21/6 10/22/6 3/23/6
f 28/24/1 7/25/1 6/26/1
f 7/27/6 6/28/6 12/29/6 11/30/6
f 9/31/6 12/29/6 6/28/6 5/32/6
f 18/33/1 12/34/1 11/30/1
f 7/35/7 27/36/7 26/37/7 8/38/7
f 10/22/1 3/3/1 2/2/1 8/39/1
f 25/40/6 2/41/6 8/42/6
f 10/43/8 20/44/8 19/45/8 11/46/8
usemtl Grass.048
f 14/47/8 15/48/8 16/49/8 17/50/8 18/51/8 11/46/8 19/45/8 20/44/8 10/43/8 13/52/8
f 21/53/1 15/54/1 14/55/1 22/56/1
f 16/49/9 15/57/9 21/58/9 23/59/9
f 24/60/7 23/61/7 21/62/7 22/63/7 25/64/7 8/38/7 26/37/7 27/36/7 7/35/7 28/65/7
f 16/49/6 23/66/6 24/67/6 17/50/6
f 18/68/10 17/69/10 24/70/10 28/71/10 6/72/10 12/73/10
f 7/74/10 8/75/10 10/76/10 11/77/10
f 14/78/10 13/79/10 3/80/10 2/81/10 25/82/10 22/83/10
