# Blender v2.83.4 OBJ File: ''
# www.blender.org
mtllib 031.mtl
o roadTile_028.001
v -1.500000 1.650000 -1.500000
v -1.500000 1.650000 1.500000
v -1.108421 1.650000 1.474335
v -0.723543 1.650000 1.397777
v -0.351950 1.650000 1.271639
v 0.000000 1.650000 1.098076
v 0.326280 1.650000 0.880060
v 0.621320 1.650000 0.621320
v 0.880060 1.650000 0.326280
v 1.098080 1.650000 0.000000
v 1.271640 1.650000 -0.351950
v 1.397780 1.650000 -0.723540
v 1.474330 1.650000 -1.108420
v 1.500000 1.650000 -1.500000
v -1.500000 0.000000 -1.500000
v -1.500000 0.000000 1.500000
v 1.500000 0.000000 -1.500000
v 1.474330 0.000000 -1.108420
v 1.397780 0.000000 -0.723540
v 1.271640 0.000000 -0.351950
v 1.098080 0.000000 0.000000
v 0.880060 0.000000 0.326280
v 0.621320 0.000000 0.621320
v 0.326280 0.000000 0.880060
v 0.000000 0.000000 1.098076
v -0.351950 0.000000 1.271639
v -0.723543 0.000000 1.397777
v -1.108421 0.000000 1.474335
vt 0.000000 3.000000
vt 0.000000 0.000000
vt 0.391579 0.025665
vt 0.776457 0.102223
vt 1.148050 0.228361
vt 1.500000 0.401924
vt 1.826280 0.619940
vt 2.121320 0.878680
vt 2.380060 1.173720
vt 2.598080 1.500000
vt 2.771640 1.851950
vt 2.897780 2.223540
vt 2.974330 2.608420
vt 3.000000 3.000000
vt -3.000000 0.000000
vt 0.000000 0.000000
vt 0.000000 1.650000
vt -3.000000 1.650000
vt -0.000000 3.000000
vt -3.000000 3.000000
vt -2.974330 2.608420
vt -2.897780 2.223540
vt -2.771640 1.851950
vt -2.598080 1.500000
vt -2.380060 1.173720
vt -2.121320 0.878680
vt -1.826280 0.619940
vt -1.500000 0.401924
vt -1.148050 0.228361
vt -0.776457 0.102223
vt -0.391579 0.025665
vt 0.000000 0.000000
vt 0.000000 1.650000
vt -3.000000 1.650000
vt -3.000000 0.000000
vt 3.189790 1.650000
vt 2.797370 1.650000
vt 2.797370 0.000000
vt 3.189790 0.000000
vt 3.138570 1.650000
vt 2.746150 1.650000
vt 2.746150 0.000000
vt 3.138570 0.000000
vt 3.037000 1.650000
vt 2.644580 1.650000
vt 2.644580 0.000000
vt 3.037000 0.000000
vt 2.886830 1.650000
vt 2.494410 1.650000
vt 2.494410 0.000000
vt 2.886830 0.000000
vt 2.690620 1.650000
vt 2.298200 1.650000
vt 2.298200 0.000000
vt 2.690620 0.000000
vt 2.451730 1.650000
vt 2.059310 1.650000
vt 2.059310 0.000000
vt 2.451730 0.000000
vt 2.174250 1.650000
vt 1.781830 1.650000
vt 1.781830 0.000000
vt 2.174250 0.000000
vt 1.862920 1.650000
vt 1.470500 1.650000
vt 1.470500 0.000000
vt 1.862920 0.000000
vt 1.523080 1.650000
vt 1.130660 1.650000
vt 1.130660 0.000000
vt 1.523080 0.000000
vt 1.160530 1.650000
vt 0.768109 1.650000
vt 0.768109 0.000000
vt 1.160530 0.000000
vt 0.781480 1.650000
vt 0.389062 1.650000
vt 0.389062 0.000000
vt 0.781480 0.000000
vt 0.392419 1.650000
vt 0.392419 0.000000
vn -0.0000 1.0000 0.0000
vn -1.0000 0.0000 0.0000
vn -0.0000 -1.0000 -0.0000
vn 0.0000 0.0000 -1.0000
vn 0.9979 0.0000 0.0654
vn 0.9914 -0.0000 0.1305
vn 0.9659 -0.0000 0.2588
vn 0.9239 -0.0000 0.3827
vn 0.8660 -0.0000 0.5000
vn 0.7934 -0.0000 0.6088
vn 0.7071 -0.0000 0.7071
vn 0.6088 -0.0000 0.7934
vn 0.5000 -0.0000 0.8660
vn 0.3827 -0.0000 0.9239
vn 0.2588 -0.0000 0.9659
vn 0.1305 -0.0000 0.9914
vn 0.0654 -0.0000 0.9979
usemtl Grass.049
s 1
f 1/1/1 2/2/1 3/3/1 4/4/1 5/5/1 6/6/1 7/7/1 8/8/1 9/9/1 10/10/1 11/11/1 12/12/1 13/13/1 14/14/1
f 15/15/2 16/16/2 2/17/2 1/18/2
f 15/19/3 17/20/3 18/21/3 19/22/3 20/23/3 21/24/3 22/25/3 23/26/3 24/27/3 25/28/3 26/29/3 27/30/3 28/31/3 16/16/3
f 15/32/4 1/33/4 14/34/4 17/35/4
f 14/36/5 13/37/6 18/38/6 17/39/5
f 13/40/6 12/41/7 19/42/7 18/43/6
f 12/44/7 11/45/8 20/46/8 19/47/7
f 11/48/8 10/49/9 21/50/9 20/51/8
f 10/52/9 9/53/10 22/54/10 21/55/9
f 9/56/10 8/57/11 23/58/11 22/59/10
f 8/60/11 7/61/12 24/62/12 23/63/11
f 7/64/12 6/65/13 25/66/13 24/67/12
f 6/68/13 5/69/14 26/70/14 25/71/13
f 5/72/14 4/73/15 27/74/15 26/75/14
f 4/76/15 3/77/16 28/78/16 27/79/15
f 3/80/16 2/17/17 16/16/17 28/81/16
