# Blender v2.83.4 OBJ File: ''
# www.blender.org
mtllib 033.mtl
o roadTile_034.001
v -1.500000 0.600000 1.500000
v -1.500000 0.300000 1.500000
v 1.500000 0.300000 1.500000
v 1.500000 0.600000 1.500000
v -1.500000 0.600001 -1.500000
v -1.500000 0.300000 -1.500000
v 1.500000 0.300000 -1.500000
v 1.500000 0.600001 -1.500000
v -1.500000 0.000000 -1.500000
v 1.500000 0.000000 -1.500000
v -1.500000 0.000000 1.500000
v 1.500000 0.000000 1.500000
vt -0.000000 0.600000
vt -0.000000 0.300000
vt 3.000000 0.300000
vt 3.000000 0.600000
vt -3.000000 0.600000
vt -3.000000 0.300000
vt -3.000000 0.300000
vt 0.000000 0.300000
vt 0.000000 0.600000
vt -3.000000 0.600000
vt 3.000000 0.600000
vt 0.000000 0.600000
vt 0.000000 0.300000
vt 3.000000 0.300000
vt -0.000000 0.000000
vt 3.000000 -0.000000
vt 3.000000 3.000000
vt 0.000000 3.000000
vt -0.000000 -0.000000
vt -3.000000 -0.000000
vt -0.000000 0.000000
vt -3.000000 -0.000000
vt 3.000000 0.000000
vt 0.000000 0.000000
vt 3.000000 0.000000
vt -3.000000 3.000000
vt -3.000000 -0.000000
vt -0.000000 3.000000
vt -118.110001 118.110001
vt -118.110001 -0.000000
vt -0.000000 0.000000
vt -0.000000 118.110001
vn 0.0000 -0.0000 1.0000
vn -1.0000 0.0000 0.0000
vn 0.0000 0.0000 -1.0000
vn 1.0000 0.0000 0.0000
vn 0.0000 1.0000 0.0000
vn 0.0000 -1.0000 -0.0000
usemtl Asphalt.004
s 1
f 1/1/1 2/2/1 3/3/1 4/4/1
f 5/5/2 6/6/2 2/2/2 1/1/2
f 7/7/3 6/8/3 5/9/3 8/10/3
f 8/11/4 4/12/4 3/13/4 7/14/4
f 1/15/5 4/16/5 8/17/5 5/18/5
usemtl Stone.026
f 9/19/3 6/8/3 7/7/3 10/20/3
f 11/21/2 2/2/2 6/6/2 9/22/2
f 12/23/1 3/3/1 2/2/1 11/21/1
f 7/14/4 3/13/4 12/24/4 10/25/4
f 10/26/6 12/27/6 11/21/6 9/28/6
usemtl FrontColor.005
f 7/29/6 3/30/6 2/31/6 6/32/6
