# Blender v2.83.4 OBJ File: ''
# www.blender.org
mtllib 034.mtl
o roadTile_036.001
v 1.500000 0.000000 1.500000
v 1.500000 0.000000 -1.500000
v 1.500000 1.650000 -1.500000
v 1.500000 1.650000 1.500000
v -1.500000 0.000000 1.500000
v -1.500000 0.000000 -1.500000
v -1.500000 1.650000 1.500000
v -1.500000 1.650000 -1.500000
vt 0.000000 -0.000000
vt 3.000000 -0.000000
vt 3.000000 1.650000
vt 0.000000 1.650000
vt -3.000000 0.000000
vt -0.000000 -0.000000
vt 0.000000 3.000000
vt -3.000000 3.000000
vt 0.000000 1.650000
vt 3.000000 0.000000
vt 3.000000 1.650000
vt -3.000000 0.000000
vt -3.000000 1.650000
vt 0.000000 3.000000
vt 0.000000 -0.000000
vt 3.000000 0.000000
vt 3.000000 3.000000
vt -3.000000 1.650000
vt -3.000000 0.000000
vt -0.000000 0.000000
vt -0.000000 1.650000
vn 1.0000 0.0000 0.0000
vn 0.0000 -1.0000 -0.0000
vn 0.0000 -0.0000 1.0000
vn -1.0000 0.0000 0.0000
vn 0.0000 1.0000 0.0000
vn 0.0000 0.0000 -1.0000
usemtl Grass.051
s 1
f 1/1/1 2/2/1 3/3/1 4/4/1
f 1/5/2 5/6/2 6/7/2 2/8/2
f 7/9/3 5/6/3 1/10/3 4/11/3
f 6/12/4 5/6/4 7/9/4 8/13/4
f 8/14/5 7/15/5 4/16/5 3/17/5
f 3/18/6 2/19/6 6/20/6 8/21/6
