# Blender v2.83.4 OBJ File: ''
# www.blender.org
mtllib 035.mtl
o roadTile_037.001
v 1.500000 0.000000 -1.500000
v 1.500000 0.000000 1.500000
v -1.500000 0.000000 1.500000
v -1.500000 0.000000 -1.500000
v 1.500000 1.650000 1.500000
v 1.500000 0.550000 -1.500000
v -1.500000 1.650000 1.500000
v -1.500000 1.650000 -1.500000
vt -3.000000 3.000000
vt -3.000000 0.000000
vt -0.000000 0.000000
vt 0.000000 3.000000
vt -0.000000 1.650000
vt -0.000000 0.000000
vt 3.000000 0.000000
vt 3.000000 0.550000
vt 3.000000 -0.000000
vt 3.000000 1.650000
vt 0.000000 1.650000
vt 0.000000 3.000000
vt 0.000000 0.000000
vt 3.000000 0.000000
vt -3.000000 0.000000
vt -3.000000 1.650000
vt -3.000000 0.550000
vt -3.000000 -0.000000
vt -0.000000 -0.000000
vt -0.000000 1.650000
vt 2.121320 -1.123640
vt -2.121320 -1.123640
vt -0.000000 -3.513200
vn 0.0000 -1.0000 -0.0000
vn 1.0000 0.0000 0.0000
vn 0.0000 -0.0000 1.0000
vn 0.0000 1.0000 0.0000
vn -1.0000 0.0000 0.0000
vn 0.0000 0.0000 -1.0000
vn 0.3255 0.8877 -0.3255
usemtl Grass.052
s 1
f 1/1/1 2/2/1 3/3/1 4/4/1
f 5/5/2 2/6/2 1/7/2 6/8/2
f 3/3/3 2/9/3 5/10/3 7/11/3
f 8/12/4 7/13/4 5/14/4
f 4/15/5 3/3/5 7/11/5 8/16/5
f 6/17/6 1/18/6 4/19/6 8/20/6
f 8/21/7 5/22/7 6/23/7
