# Blender v2.83.4 OBJ File: ''
# www.blender.org
mtllib 036.mtl
o roadTile_039.001
v -1.500000 0.000000 -1.500000
v -1.500000 0.000000 -1.098840
v -1.500000 0.550000 -1.098840
v -1.500000 0.630000 -1.098840
v -1.500000 0.630000 -1.500000
v -1.098836 0.000000 1.500000
v -1.500000 0.000000 1.500000
v -1.500000 0.000000 1.098836
v -1.098836 0.000000 -1.500000
v 1.098840 0.000000 -1.500000
v 1.500000 0.000000 -1.500000
v 1.500000 0.000000 -1.098840
v 1.500000 0.000000 1.098836
v 1.500000 0.000000 1.500000
v 1.098840 0.000000 1.500000
v -1.098836 0.550000 1.500000
v -1.098836 0.630000 1.500000
v -1.500000 0.630000 1.500000
v 1.098840 0.550000 1.500000
v 1.098840 0.630000 1.500000
v 1.500000 0.630000 1.500000
v 1.325830 0.630000 1.325825
v 1.325830 0.550000 1.325825
v 1.500000 0.630000 1.098836
v 1.500000 0.550000 1.098836
v 1.500000 0.550000 -1.098840
v 1.500000 0.630000 -1.098840
v 1.500000 0.630000 -1.500000
v 1.325830 0.630000 -1.325830
v 1.325830 0.550000 -1.325830
v 1.098840 0.630000 -1.500000
v 1.098840 0.550000 -1.500000
v -1.098836 0.550000 -1.500000
v -1.325825 0.550000 -1.325830
v -1.500000 0.550000 1.098836
v -1.325825 0.550000 1.325825
v -1.325825 0.630000 -1.325830
v -1.098836 0.630000 -1.500000
v -1.500000 0.630000 1.098836
v -1.325825 0.630000 1.325825
vt -3.000000 0.000000
vt -2.598840 0.000000
vt -2.598840 0.550000
vt -2.598840 0.630000
vt -3.000000 0.630000
vt -0.000000 -0.000000
vt 0.401164 0.000000
vt 0.401164 0.550000
vt 0.401164 0.630000
vt -0.000000 0.630000
vt 2.598840 0.630000
vt 2.598840 0.550000
vt 2.598840 0.000000
vt 3.000000 0.000000
vt 3.000000 0.630000
vt -2.061800 0.630000
vt -2.347910 0.630000
vt -2.347910 0.550000
vt -2.061800 0.550000
vt 2.598840 0.000000
vt 3.000000 0.000000
vt 3.000000 0.401164
vt 2.825830 0.174175
vt 0.000000 0.000000
vt 0.401164 0.000000
vt 0.401164 0.550000
vt 0.401164 0.630000
vt 0.000000 0.630000
vt 2.598840 0.630000
vt 2.598840 0.550000
vt 2.598840 0.000000
vt 3.000000 0.000000
vt 3.000000 0.630000
vt -0.235511 0.630000
vt -0.521624 0.630000
vt -0.521624 0.550000
vt -0.235511 0.550000
vt 3.000000 2.598840
vt 3.000000 3.000000
vt 2.598840 3.000000
vt 2.825830 2.825830
vt -2.598840 0.630000
vt -3.000000 0.630000
vt -3.000000 0.000000
vt -2.598840 0.000000
vt -2.598840 0.550000
vt 2.347910 0.630000
vt 2.061800 0.630000
vt 2.061800 0.550000
vt 2.347910 0.550000
vt 0.401164 3.000000
vt 0.000000 3.000000
vt 0.000000 2.598840
vt 0.174175 2.825830
vt -0.000000 0.630000
vt -0.401164 0.630000
vt -0.401164 0.550000
vt -0.401164 0.000000
vt -0.000000 0.000000
vt 2.144550 0.630000
vt 1.858440 0.630000
vt 1.858440 0.550000
vt 2.144550 0.550000
vt -0.401164 0.630000
vt -0.401164 0.550000
vt -0.401164 0.000000
vt 0.318265 0.630000
vt 0.032151 0.630000
vt 0.032151 0.550000
vt 0.318265 0.550000
vt 0.000000 0.401164
vt 0.000000 0.000000
vt 0.401164 0.000000
vt 0.174175 0.174175
vt -0.032151 0.630000
vt -0.318265 0.630000
vt -0.318265 0.550000
vt -0.032151 0.550000
vt -1.858440 0.630000
vt -2.144550 0.630000
vt -2.144550 0.550000
vt -1.858440 0.550000
vt 0.521624 0.630000
vt 0.235511 0.630000
vt 0.235511 0.550000
vt 0.521624 0.550000
vt -0.401164 0.000000
vt -0.000000 0.401164
vt -0.000000 2.598840
vt -0.000000 3.000000
vt -0.401164 3.000000
vt -2.598840 3.000000
vt -3.000000 3.000000
vt -3.000000 2.598840
vt -3.000000 0.401164
vt -3.000000 0.000000
vt -2.598840 0.000000
vt 0.174175 2.825830
vt 0.000000 2.598840
vt 0.000000 0.401164
vt 0.174175 0.174175
vt 0.401164 0.000000
vt 2.598840 0.000000
vt 2.825830 0.174175
vt 3.000000 0.401164
vt 3.000000 2.598840
vt 2.825830 2.825830
vt 2.598840 3.000000
vt 0.401164 3.000000
vn -1.0000 0.0000 0.0000
vn -0.0000 -0.0000 1.0000
vn -0.6088 0.0000 -0.7934
vn -0.7071 0.0000 -0.7071
vn -0.0000 1.0000 0.0000
vn 1.0000 0.0000 0.0000
vn -0.7934 0.0000 0.6087
vn -0.7071 0.0000 0.7071
vn 0.0000 0.0000 -1.0000
vn 0.7071 0.0000 0.7071
vn 0.7934 0.0000 0.6088
vn 0.6088 0.0000 0.7934
vn 0.7934 0.0000 -0.6088
vn 0.7071 0.0000 -0.7071
vn 0.6088 0.0000 -0.7934
vn -0.7934 0.0000 -0.6088
vn -0.6087 0.0000 0.7934
vn -0.0000 -1.0000 -0.0000
usemtl Stone.027
s 1
f 1/1/1 2/2/1 3/3/1 4/4/1 5/5/1
f 7/6/2 6/7/2 16/8/2 17/9/2 18/10/2
f 20/11/2 19/12/2 15/13/2 14/14/2 21/15/2
f 20/16/3 22/17/4 23/18/4 19/19/3
f 20/20/5 21/21/5 24/22/5 22/23/5
f 14/24/6 13/25/6 25/26/6 24/27/6 21/28/6
f 27/29/6 26/30/6 12/31/6 11/32/6 28/33/6
f 27/34/7 29/35/8 30/36/8 26/37/7
f 27/38/5 28/39/5 31/40/5 29/41/5
f 31/42/9 28/43/9 11/44/9 10/45/9 32/46/9
f 37/47/10 4/48/11 3/49/11 34/50/10
f 38/51/5 5/52/5 4/53/5 37/54/5
f 5/55/9 38/56/9 33/57/9 9/58/9 1/59/9
f 38/60/12 37/61/10 34/62/10 33/63/12
f 39/64/1 35/65/1 8/66/1 7/6/1 18/10/1
f 39/67/13 40/68/14 36/69/14 35/70/13
f 39/71/5 18/72/5 17/73/5 40/74/5
f 40/75/14 17/76/15 16/77/15 36/78/14
f 22/79/4 24/80/16 25/81/16 23/82/4
f 29/83/8 31/84/17 32/85/17 30/86/8
usemtl Grass.053
f 6/87/18 7/6/18 8/88/18 2/89/18 1/90/18 9/91/18 10/92/18 11/93/18 12/94/18 13/95/18 14/96/18 15/97/18
f 6/7/2 15/13/2 19/12/2 16/8/2
f 13/25/6 12/31/6 26/30/6 25/26/6
f 33/57/9 32/46/9 10/45/9 9/58/9
f 34/98/5 3/99/5 35/100/5 36/101/5 16/102/5 19/103/5 23/104/5 25/105/5 26/106/5 30/107/5 32/108/5 33/109/5
f 2/2/1 8/66/1 35/65/1 3/3/1
