# Blender v2.83.4 OBJ File: ''
# www.blender.org
mtllib 037.mtl
o roadTile_058.001
v 1.500000 0.300000 1.500000
v -1.500000 0.300000 1.500000
v -1.500000 0.000000 1.500000
v 1.500000 0.000000 1.500000
v -1.500000 0.300000 -1.500000
v 1.500000 0.300000 -1.500000
v -1.500000 0.000000 -1.500000
v -1.500000 0.600001 -1.500000
v -1.500000 0.600000 1.500000
v 1.500000 0.600001 -1.500000
v 1.500000 0.600000 1.500000
v 1.500000 0.000000 -1.500000
vt 3.000000 0.300000
vt 0.000000 0.300000
vt -0.000000 0.000000
vt 3.000000 0.000000
vt -3.000000 0.300000
vt -3.000000 0.000000
vt 3.000000 0.000000
vt 3.000000 0.300000
vt 0.000000 0.300000
vt 0.000000 0.000000
vt 0.000000 0.000000
vt 0.000000 0.300000
vt -3.000000 0.300000
vt -3.000000 0.000000
vt -3.000000 3.000000
vt -3.000000 0.000000
vt -0.000000 3.000000
vt 0.000000 118.110001
vt 0.000000 0.000000
vt 118.110001 0.000000
vt 118.110001 118.110001
vt -3.000000 0.600000
vt -0.000000 0.600000
vt 0.000000 0.600000
vt -3.000000 0.600000
vt 0.000000 3.000000
vt 0.000000 0.000000
vt 3.000000 -0.000000
vt 3.000000 3.000000
vt 3.000000 0.600000
vt 0.000000 0.600000
vt 3.000000 0.600000
vn 0.0000 0.0000 1.0000
vn -1.0000 0.0000 0.0000
vn 1.0000 0.0000 0.0000
vn 0.0000 0.0000 -1.0000
vn -0.0000 -1.0000 -0.0000
vn 0.0000 1.0000 0.0000
usemtl Stone.028
s 1
f 1/1/1 2/2/1 3/3/1 4/4/1
f 3/3/2 2/2/2 5/5/2 7/6/2
f 12/7/3 6/8/3 1/9/3 4/10/3
f 7/11/4 5/12/4 6/13/4 12/14/4
f 12/15/5 4/16/5 3/3/5 7/17/5
usemtl FrontColor.006
f 5/18/6 2/19/6 1/20/6 6/21/6
usemtl Asphalt.005
f 8/22/2 5/5/2 2/2/2 9/23/2
f 5/12/4 8/24/4 10/25/4 6/13/4
f 8/26/6 9/27/6 11/28/6 10/29/6
f 9/23/1 2/2/1 1/1/1 11/30/1
f 11/31/3 1/9/3 6/8/3 10/32/3
