# Blender v2.83.4 OBJ File: ''
# www.blender.org
mtllib 038.mtl
o roadTile_129.001
v 1.500000 0.000000 1.500000
v 1.500000 0.300000 1.500000
v -1.500000 0.300000 1.500000
v -1.500000 0.000000 1.500000
v 1.500000 0.300000 -1.500000
v 1.500000 0.000000 -1.500000
v 1.500000 0.600001 -1.500000
v 1.500000 0.600000 1.500000
v -1.500000 0.600000 1.500000
v -1.500000 0.600001 -1.500000
v -1.500000 0.300000 -1.500000
v -1.500000 0.000000 -1.500000
vt 3.000000 0.000000
vt 3.000000 0.300000
vt -0.000000 0.300000
vt -0.000000 0.000000
vt 3.000000 0.300000
vt 0.000000 0.300000
vt 0.000000 0.000000
vt 3.000000 0.000000
vt -3.000000 0.300000
vt -3.000000 -0.000000
vt -0.000000 -0.000000
vt -0.000000 0.300000
vt -3.000000 0.300000
vt -3.000000 -0.000000
vt -3.000000 3.000000
vt -3.000000 -0.000000
vt -0.000000 3.000000
vt 3.000000 0.600000
vt 0.000000 0.600000
vt -0.000000 0.000000
vt 3.000000 -0.000000
vt 3.000000 3.000000
vt 0.000000 3.000000
vt -0.000000 0.600000
vt 3.000000 0.600000
vt -3.000000 0.600000
vt 0.000000 0.600000
vt -3.000000 0.600000
vt -118.110001 118.110001
vt -118.110001 -0.000000
vt -0.000000 0.000000
vt -0.000000 118.110001
vn 0.0000 0.0000 1.0000
vn 1.0000 0.0000 0.0000
vn -1.0000 0.0000 0.0000
vn 0.0000 0.0000 -1.0000
vn 0.0000 -1.0000 -0.0000
vn 0.0000 1.0000 0.0000
usemtl Stone.029
s 1
f 1/1/1 2/2/1 3/3/1 4/4/1
f 5/5/2 2/6/2 1/7/2 6/8/2
f 4/4/3 3/3/3 11/9/3 12/10/3
f 12/11/4 11/12/4 5/13/4 6/14/4
f 6/15/5 1/16/5 4/4/5 12/17/5
usemtl Asphalt.006
f 7/18/2 8/19/2 2/6/2 5/5/2
f 9/20/6 8/21/6 7/22/6 10/23/6
f 9/24/1 3/3/1 2/2/1 8/25/1
f 10/26/3 11/9/3 3/3/3 9/24/3
f 5/13/4 11/12/4 10/27/4 7/28/4
usemtl FrontColor.007
f 5/29/5 2/30/5 3/31/5 11/32/5
