# Blender v2.83.4 OBJ File: ''
# www.blender.org
mtllib 040.mtl
o roadTile_140.001
v -1.500000 0.000000 1.500000
v 1.500000 0.000000 1.500000
v 1.500000 0.550000 1.500000
v -1.500000 1.650000 1.500000
v 1.500000 0.000000 -1.500000
v -1.500000 0.000000 -1.500000
v 1.500000 0.550000 -1.500000
v -1.500000 0.550000 -1.500000
vt -0.000000 0.000000
vt 3.000000 0.000000
vt 3.000000 0.550000
vt 0.000000 1.650000
vt -3.000000 3.000000
vt -3.000000 0.000000
vt -0.000000 3.000000
vt 0.000000 0.550000
vt 0.000000 0.000000
vt 3.000000 0.000000
vt 3.000000 0.550000
vt -3.000000 -0.000000
vt 0.000000 -0.000000
vt 0.000000 0.550000
vt -3.000000 0.550000
vt -3.000000 0.550000
vt -3.000000 0.000000
vt -0.000000 0.759554
vt -2.121320 -1.630010
vt 2.121320 -1.630010
vt 3.000000 3.000000
vt 0.000000 3.000000
vt 3.000000 0.000000
vn 0.0000 -0.0000 1.0000
vn 0.0000 -1.0000 -0.0000
vn 1.0000 -0.0000 0.0000
vn 0.0000 0.0000 -1.0000
vn -1.0000 0.0000 0.0000
vn 0.3255 0.8877 -0.3255
vn 0.0000 1.0000 0.0000
usemtl Grass.054
s 1
f 1/1/1 2/2/1 3/3/1 4/4/1
f 5/5/2 2/6/2 1/1/2 6/7/2
f 3/8/3 2/9/3 5/10/3 7/11/3
f 5/12/4 6/13/4 8/14/4 7/15/4
f 8/16/5 6/17/5 1/1/5 4/4/5
f 4/18/6 3/19/6 8/20/6
f 7/21/7 8/22/7 3/23/7
