# Blender v2.83.4 OBJ File: ''
# www.blender.org
mtllib 041.mtl
o roadTile_151.001
v -1.500000 0.550000 -1.500000
v -1.500000 0.000000 -1.500000
v -1.500000 0.000000 1.500000
v -1.500000 1.650000 1.500000
v 1.500000 0.550000 -1.500000
v 1.500000 0.000000 -1.500000
v 1.500000 0.000000 1.500000
v 1.500000 0.550000 1.500000
vt -3.000000 0.550000
vt -3.000000 0.000000
vt 0.000000 0.000000
vt 0.000000 1.650000
vt -3.000000 0.550000
vt -3.000000 0.000000
vt -0.000000 0.000000
vt -0.000000 0.550000
vt 0.000000 -0.000000
vt 3.000000 -0.000000
vt 3.000000 0.550000
vt 0.000000 0.550000
vt -3.000000 0.000000
vt 0.000000 3.000000
vt -3.000000 3.000000
vt 3.000000 0.000000
vt 3.000000 0.550000
vt -0.000000 0.568020
vt 0.000000 -2.627290
vt 3.000000 -2.627290
vt -3.000000 -2.627290
vt -0.000000 -2.627290
vn -1.0000 0.0000 0.0000
vn 0.0000 0.0000 -1.0000
vn 1.0000 0.0000 0.0000
vn 0.0000 -1.0000 -0.0000
vn 0.0000 -0.0000 1.0000
vn 0.3443 0.9389 0.0000
vn 0.0000 0.9389 -0.3443
usemtl Grass.055
s 1
f 1/1/1 2/2/1 3/3/1 4/4/1
f 5/5/2 6/6/2 2/7/2 1/8/2
f 7/9/3 6/10/3 5/11/3 8/12/3
f 7/13/4 3/3/4 2/14/4 6/15/4
f 3/3/5 7/16/5 8/17/5 4/4/5
f 4/18/6 8/19/6 5/20/6
f 4/18/7 5/21/7 1/22/7
