# Blender v2.83.4 OBJ File: ''
# www.blender.org
mtllib 049.mtl
o roadTile_176.001
v 1.500000 0.455000 -1.500000
v 1.500000 0.000000 -1.500000
v -1.500000 0.000000 -1.500000
v -1.500000 0.550000 -1.500000
v 1.500000 0.550000 -1.500000
v 1.500000 0.000000 1.500000
v 1.500000 0.455000 1.500000
v -1.500000 0.000000 1.500000
v -1.500000 0.000000 0.750000
v -1.500000 0.000000 -0.750000
v -1.500000 0.550000 1.500000
v 1.500000 0.550000 1.500000
v -1.500000 0.550000 0.750000
v -1.500000 0.455000 0.750000
v 0.750000 0.550000 0.750000
v 0.750000 0.455000 0.750000
v 0.847890 0.550000 0.756416
v 0.847890 0.455000 0.756416
v 1.493580 0.550000 1.402106
v 1.474440 0.550000 1.305886
v 1.442910 0.550000 1.212987
v 1.399520 0.550000 1.125000
v 1.345020 0.550000 1.043429
v 1.280330 0.550000 0.969670
v 1.206570 0.550000 0.904985
v 1.125000 0.550000 0.850481
v 1.037010 0.550000 0.807090
v 0.944110 0.550000 0.775556
v 1.493580 0.455000 1.402106
v 1.493580 0.455000 -1.402110
v 1.474440 0.455000 -1.305890
v 1.442910 0.455000 -1.212990
v 1.399520 0.455000 -1.125000
v 1.345020 0.455000 -1.043430
v 1.280330 0.455000 -0.969670
v 1.206570 0.455000 -0.904980
v 1.125000 0.455000 -0.850480
v 1.037010 0.455000 -0.807090
v 0.944110 0.455000 -0.775560
v 0.847890 0.455000 -0.756420
v 0.750000 0.455000 -0.750000
v -1.500000 0.455000 -0.750000
v 0.944110 0.455000 0.775556
v 1.037010 0.455000 0.807090
v 1.125000 0.455000 0.850481
v 1.206570 0.455000 0.904985
v 1.280330 0.455000 0.969670
v 1.345020 0.455000 1.043429
v 1.399520 0.455000 1.125000
v 1.442910 0.455000 1.212987
v 1.474440 0.455000 1.305886
v 1.493580 0.550000 -1.402110
v -1.500000 0.550000 -0.750000
v 0.750000 0.550000 -0.750000
v 0.847890 0.550000 -0.756420
v 0.944110 0.550000 -0.775560
v 1.037010 0.550000 -0.807090
v 1.125000 0.550000 -0.850480
v 1.206570 0.550000 -0.904980
v 1.280330 0.550000 -0.969670
v 1.345020 0.550000 -1.043430
v 1.399520 0.550000 -1.125000
v 1.442910 0.550000 -1.212990
v 1.474440 0.550000 -1.305890
vt -3.000000 0.455000
vt -3.000000 0.000000
vt -0.000000 0.000000
vt -0.000000 0.550000
vt -3.000000 0.550000
vt -3.000000 0.000000
vt -0.000000 0.000000
vt -0.000000 0.750000
vt -0.000000 2.250000
vt -0.000000 3.000000
vt -3.000000 3.000000
vt 0.000000 0.550000
vt 3.000000 0.000000
vt 3.000000 0.455000
vt 3.000000 0.550000
vt -0.750000 0.550000
vt -0.750000 0.455000
vt -0.750000 -0.000000
vt -2.250000 0.550000
vt -2.250000 0.455000
vt -0.000000 0.455000
vt -0.000000 0.550000
vt -2.196130 0.550000
vt -2.294230 0.550000
vt -2.294230 0.455000
vt -2.196130 0.455000
vt 2.347890 0.743584
vt 2.250000 0.750000
vt 0.000000 0.750000
vt 0.000000 0.000000
vt 3.000000 0.000000
vt 2.993580 0.097895
vt 2.974440 0.194114
vt 2.942910 0.287013
vt 2.899520 0.375000
vt 2.845020 0.456571
vt 2.780330 0.530330
vt 2.706570 0.595015
vt 2.625000 0.649519
vt 2.537010 0.692910
vt 2.444110 0.724444
vt -0.098105 0.550000
vt -0.196209 0.550000
vt -0.196209 0.455000
vt -0.098105 0.455000
vt 3.189790 0.550000
vt 3.091680 0.550000
vt 3.091680 0.455000
vt 3.189790 0.455000
vt 0.000000 2.250000
vt 2.250000 2.250000
vt 2.347890 2.256420
vt 2.444110 2.275560
vt 2.537010 2.307090
vt 2.625000 2.350480
vt 2.706570 2.404980
vt 2.780330 2.469670
vt 2.845020 2.543430
vt 2.899520 2.625000
vt 2.942910 2.712990
vt 2.974440 2.805890
vt 2.993580 2.902110
vt 3.000000 3.000000
vt 0.000000 3.000000
vt 0.000000 0.455000
vt 2.250000 0.455000
vt 2.250000 0.550000
vt 0.000000 0.550000
vt 2.490440 0.550000
vt 2.392340 0.550000
vt 2.392340 0.455000
vt 2.490440 0.455000
vt 2.841090 0.550000
vt 2.742990 0.550000
vt 2.742990 0.455000
vt 2.841090 0.455000
vt 3.143960 0.550000
vt 3.045860 0.550000
vt 3.045860 0.455000
vt 3.143960 0.455000
vt 3.393880 0.550000
vt 3.295780 0.550000
vt 3.295780 0.455000
vt 3.393880 0.455000
vt 3.586570 0.550000
vt 3.488460 0.550000
vt 3.488460 0.455000
vt 3.586570 0.455000
vt 3.718730 0.550000
vt 3.620620 0.550000
vt 3.620620 0.455000
vt 3.718730 0.455000
vt 3.788100 0.550000
vt 3.690000 0.550000
vt 3.690000 0.455000
vt 3.788100 0.455000
vt 3.793490 0.550000
vt 3.695390 0.550000
vt 3.695390 0.455000
vt 3.793490 0.455000
vt 3.734820 0.550000
vt 3.636720 0.550000
vt 3.636720 0.455000
vt 3.734820 0.455000
vt 3.613080 0.550000
vt 3.514980 0.550000
vt 3.514980 0.455000
vt 3.613080 0.455000
vt 3.430360 0.550000
vt 3.332260 0.550000
vt 3.332260 0.455000
vt 3.430360 0.455000
vt -3.000000 0.000000
vt -2.250000 0.000000
vt -2.250000 0.455000
vt -2.250000 0.550000
vt -3.000000 0.550000
vt -2.157710 0.550000
vt -2.255820 0.550000
vt -2.255820 0.455000
vt -2.157710 0.455000
vt -2.081540 0.550000
vt -2.179650 0.550000
vt -2.179650 0.455000
vt -2.081540 0.455000
vt -1.968910 0.550000
vt -2.067020 0.550000
vt -2.067020 0.455000
vt -1.968910 0.455000
vt -1.821750 0.550000
vt -1.919860 0.550000
vt -1.919860 0.455000
vt -1.821750 0.455000
vt -1.642590 0.550000
vt -1.740690 0.550000
vt -1.740690 0.455000
vt -1.642590 0.455000
vt -1.434480 0.550000
vt -1.532580 0.550000
vt -1.532580 0.455000
vt -1.434480 0.455000
vt -1.200980 0.550000
vt -1.299090 0.550000
vt -1.299090 0.455000
vt -1.200980 0.455000
vt -0.946097 0.550000
vt -1.044200 0.550000
vt -1.044200 0.455000
vt -0.946097 0.455000
vt -0.674186 0.550000
vt -0.772291 0.550000
vt -0.772291 0.455000
vt -0.674186 0.455000
vt -0.389901 0.550000
vt -0.488006 0.550000
vt -0.488006 0.455000
vt -0.389901 0.455000
vt -0.000000 0.000000
vt 3.000000 0.000000
vt 3.000000 0.455000
vt -0.000000 0.455000
vt 3.000000 0.000000
vt 3.000000 3.000000
vt 2.993580 2.902110
vt 2.974440 2.805890
vt 2.942910 2.712990
vt 2.899520 2.625000
vt 2.845020 2.543430
vt 2.780330 2.469670
vt 2.706570 2.404980
vt 2.625000 2.350480
vt 2.537010 2.307090
vt 2.444110 2.275560
vt 2.347890 2.256420
vt 2.250000 2.250000
vt 0.000000 2.250000
vt 0.000000 0.750000
vt 2.250000 0.750000
vt 2.347890 0.743584
vt 2.444110 0.724444
vt 2.537010 0.692910
vt 2.625000 0.649519
vt 2.706570 0.595015
vt 2.780330 0.530330
vt 2.845020 0.456571
vt 2.899520 0.375000
vt 2.942910 0.287013
vt 2.974440 0.194114
vt 2.993580 0.097895
vn 0.0000 0.0000 -1.0000
vn -0.0000 -1.0000 -0.0000
vn 0.0000 -0.0000 1.0000
vn -1.0000 -0.0000 0.0000
vn 0.0327 0.0000 -0.9995
vn 0.1305 0.0000 -0.9914
vn 0.0000 1.0000 0.0000
vn 0.9914 0.0000 -0.1305
vn 0.9979 0.0000 -0.0654
vn 0.9979 0.0000 0.0654
vn 0.9914 0.0000 0.1305
vn 0.0327 -0.0000 0.9995
vn 0.1305 -0.0000 0.9914
vn 0.2588 -0.0000 0.9659
vn 0.3827 -0.0000 0.9239
vn 0.5000 -0.0000 0.8660
vn 0.6088 -0.0000 0.7934
vn 0.7071 0.0000 0.7071
vn 0.7934 0.0000 0.6088
vn 0.8660 0.0000 0.5000
vn 0.9239 0.0000 0.3827
vn 0.9659 0.0000 0.2588
vn 0.2588 0.0000 -0.9659
vn 0.3827 0.0000 -0.9239
vn 0.5000 0.0000 -0.8660
vn 0.6088 0.0000 -0.7934
vn 0.7071 0.0000 -0.7071
vn 0.7934 0.0000 -0.6088
vn 0.8660 0.0000 -0.5000
vn 0.9239 0.0000 -0.3827
vn 0.9659 0.0000 -0.2588
vn 1.0000 0.0000 0.0000
usemtl Grass.063
s 1
f 1/1/1 2/2/1 3/3/1 4/4/1 5/5/1
f 6/6/2 8/7/2 9/8/2 10/9/2 3/10/2 2/11/2
f 11/12/3 8/7/3 6/13/3 7/14/3 12/15/3
f 13/16/4 14/17/4 9/18/4 8/7/4 11/12/4
f 15/19/5 16/20/5 14/21/1 13/22/1
f 15/23/5 17/24/6 18/25/6 16/26/5
f 17/27/7 15/28/7 13/29/7 11/30/7 12/31/7 19/32/7 20/33/7 21/34/7 22/35/7 23/36/7 24/37/7 25/38/7 26/39/7 27/40/7 28/41/7
f 19/42/8 12/43/9 7/44/9 29/45/8
f 5/46/10 52/47/11 30/48/11 1/49/10
f 53/50/7 54/51/7 55/52/7 56/53/7 57/54/7 58/55/7 59/56/7 60/57/7 61/58/7 62/59/7 63/60/7 64/61/7 52/62/7 5/63/7 4/64/7
f 42/65/3 41/66/12 54/67/12 53/68/3
f 55/69/13 54/70/12 41/71/12 40/72/13
f 56/73/14 55/74/13 40/75/13 39/76/14
f 57/77/15 56/78/14 39/79/14 38/80/15
f 58/81/16 57/82/15 38/83/15 37/84/16
f 59/85/17 58/86/16 37/87/16 36/88/17
f 60/89/18 59/90/17 36/91/17 35/92/18
f 61/93/19 60/94/18 35/95/18 34/96/19
f 62/97/20 61/98/19 34/99/19 33/100/20
f 63/101/21 62/102/20 33/103/20 32/104/21
f 64/105/22 63/106/21 32/107/21 31/108/22
f 52/109/11 64/110/22 31/111/22 30/112/11
f 3/113/4 10/114/4 42/115/4 53/116/4 4/117/4
f 17/118/6 28/119/23 43/120/23 18/121/6
f 28/122/23 27/123/24 44/124/24 43/125/23
f 27/126/24 26/127/25 45/128/25 44/129/24
f 26/130/25 25/131/26 46/132/26 45/133/25
f 25/134/26 24/135/27 47/136/27 46/137/26
f 24/138/27 23/139/28 48/140/28 47/141/27
f 23/142/28 22/143/29 49/144/29 48/145/28
f 22/146/29 21/147/30 50/148/30 49/149/29
f 21/150/30 20/151/31 51/152/31 50/153/30
f 20/154/31 19/155/8 29/156/8 51/157/31
usemtl Water.026
f 6/158/32 2/159/32 1/160/32 7/161/32
f 7/162/7 1/163/7 30/164/7 31/165/7 32/166/7 33/167/7 34/168/7 35/169/7 36/170/7 37/171/7 38/172/7 39/173/7 40/174/7 41/175/7 42/176/7 14/177/7 16/178/7 18/179/7 43/180/7 44/181/7 45/182/7 46/183/7 47/184/7 48/185/7 49/186/7 50/187/7 51/188/7 29/189/7
f 10/114/4 9/18/4 14/17/4 42/115/4
