# Blender v2.83.4 OBJ File: ''
# www.blender.org
mtllib 050.mtl
o roadTile_177.001
v 1.500000 0.455000 -1.500000
v 1.500000 0.000000 -1.500000
v -0.750000 0.000000 -1.500000
v -0.750000 0.455000 -1.500000
v 1.500000 0.455000 0.750000
v 1.500000 0.000000 0.750000
v 1.500000 0.000000 1.500000
v 1.500000 0.550000 0.750000
v 1.500000 0.550000 1.500000
v -1.500000 0.000000 1.500000
v -1.500000 0.000000 -1.500000
v -1.500000 0.550000 1.500000
v -1.500000 0.550000 -1.500000
v -0.730751 0.550000 -1.206320
v -0.750000 0.550000 -1.500000
v 1.206320 0.550000 0.730751
v 0.917660 0.550000 0.673333
v 0.638960 0.550000 0.578729
v 0.375000 0.550000 0.448560
v 0.130290 0.550000 0.285050
v -0.090990 0.550000 0.090990
v -0.285050 0.550000 -0.130290
v -0.448560 0.550000 -0.375000
v -0.578729 0.550000 -0.638960
v -0.673333 0.550000 -0.917660
v -0.730751 0.455000 -1.206320
v -0.673333 0.455000 -0.917660
v -0.578729 0.455000 -0.638960
v -0.448560 0.455000 -0.375000
v -0.285050 0.455000 -0.130290
v -0.090990 0.455000 0.090990
v 0.130290 0.455000 0.285050
v 0.375000 0.455000 0.448560
v 0.638960 0.455000 0.578729
v 0.917660 0.455000 0.673333
v 1.206320 0.455000 0.730751
vt -3.000000 0.455000
vt -3.000000 0.000000
vt -0.750000 0.000000
vt -0.750000 0.455000
vt 0.750000 0.455000
vt 0.750000 0.000000
vt 3.000000 0.000000
vt 3.000000 0.455000
vt 3.000000 3.000000
vt 0.750000 3.000000
vt 0.769249 2.706320
vt 0.826667 2.417660
vt 0.921271 2.138960
vt 1.051440 1.875000
vt 1.214950 1.630290
vt 1.409010 1.409010
vt 1.630290 1.214950
vt 1.875000 1.051440
vt 2.138960 0.921271
vt 2.417660 0.826667
vt 2.706320 0.769249
vt 3.000000 0.750000
vt 0.000000 0.000000
vt 0.750000 0.550000
vt 0.000000 0.550000
vt -3.000000 0.750000
vt -3.000000 -0.000000
vt -0.000000 0.000000
vt -0.000000 3.000000
vt -0.750000 3.000000
vt -3.000000 3.000000
vt -0.000000 0.550000
vt 3.000000 0.000000
vt 3.000000 0.550000
vt -3.000000 0.550000
vt -3.000000 0.000000
vt 0.769249 2.706320
vt 0.750000 3.000000
vt 0.000000 3.000000
vt 0.000000 0.000000
vt 3.000000 0.000000
vt 3.000000 0.750000
vt 2.706320 0.769249
vt 2.417660 0.826667
vt 2.138960 0.921271
vt 1.875000 1.051440
vt 1.630290 1.214950
vt 1.409010 1.409010
vt 1.214950 1.630290
vt 1.051440 1.875000
vt 0.921271 2.138960
vt 0.826667 2.417660
vt 2.650210 0.455000
vt 2.944520 0.455000
vt 2.944520 0.550000
vt 2.650210 0.550000
vt 2.209930 0.455000
vt 2.504240 0.455000
vt 2.504240 0.550000
vt 2.209930 0.550000
vt 1.729310 0.455000
vt 2.023630 0.455000
vt 2.023630 0.550000
vt 1.729310 0.550000
vt 1.216600 0.455000
vt 1.510910 0.455000
vt 1.510910 0.550000
vt 1.216600 0.550000
vt 0.680541 0.455000
vt 0.974855 0.455000
vt 0.974855 0.550000
vt 0.680541 0.550000
vt 0.130325 0.455000
vt 0.424639 0.455000
vt 0.424639 0.550000
vt 0.130325 0.550000
vt -0.424639 0.455000
vt -0.130325 0.455000
vt -0.130325 0.550000
vt -0.424639 0.550000
vt -0.974855 0.455000
vt -0.680541 0.455000
vt -0.680541 0.550000
vt -0.974855 0.550000
vt -1.510910 0.455000
vt -1.216600 0.455000
vt -1.216600 0.550000
vt -1.510910 0.550000
vt -2.023630 0.455000
vt -1.729310 0.455000
vt -1.729310 0.550000
vt -2.023630 0.550000
vt -2.504240 0.455000
vt -2.209930 0.455000
vt -2.209930 0.550000
vt -2.504240 0.550000
vt -2.944520 0.455000
vt -2.650210 0.455000
vt -2.650210 0.550000
vt -2.944520 0.550000
vt 0.000000 0.000000
vt 0.000000 0.550000
vt -0.750000 0.550000
vn 0.0000 0.0000 -1.0000
vn 1.0000 -0.0000 0.0000
vn 0.0000 1.0000 0.0000
vn 0.0000 -1.0000 -0.0000
vn 0.0000 -0.0000 1.0000
vn -1.0000 0.0000 0.0000
vn 0.9914 0.0000 -0.1305
vn 0.9979 0.0000 -0.0654
vn 0.9659 0.0000 -0.2588
vn 0.9239 0.0000 -0.3827
vn 0.8660 0.0000 -0.5000
vn 0.7934 0.0000 -0.6088
vn 0.7071 0.0000 -0.7071
vn 0.6088 0.0000 -0.7934
vn 0.5000 0.0000 -0.8660
vn 0.3827 0.0000 -0.9239
vn 0.2588 0.0000 -0.9659
vn 0.1305 0.0000 -0.9914
vn 0.0654 0.0000 -0.9979
usemtl Water.027
s 1
f 1/1/1 2/2/1 3/3/1 4/4/1
f 5/5/2 6/6/2 2/7/2 1/8/2
f 1/9/3 4/10/3 26/11/3 27/12/3 28/13/3 29/14/3 30/15/3 31/16/3 32/17/3 33/18/3 34/19/3 35/20/3 36/21/3 5/22/3
usemtl Grass.064
f 7/23/2 6/6/2 5/5/2 8/24/2 9/25/2
f 6/26/4 7/27/4 10/28/4 11/29/4 3/30/4 2/31/4
f 12/32/5 10/28/5 7/33/5 9/34/5
f 12/32/6 13/35/6 11/36/6 10/28/6
f 14/37/3 15/38/3 13/39/3 12/40/3 9/41/3 8/42/3 16/43/3 17/44/3 18/45/3 19/46/3 20/47/3 21/48/3 22/49/3 23/50/3 24/51/3 25/52/3
f 26/53/7 4/54/8 15/55/8 14/56/7
f 27/57/9 26/58/7 14/59/7 25/60/9
f 28/61/10 27/62/9 25/63/9 24/64/10
f 29/65/11 28/66/10 24/67/10 23/68/11
f 30/69/12 29/70/11 23/71/11 22/72/12
f 31/73/13 30/74/12 22/75/12 21/76/13
f 32/77/14 31/78/13 21/79/13 20/80/14
f 33/81/15 32/82/14 20/83/14 19/84/15
f 34/85/16 33/86/15 19/87/15 18/88/16
f 35/89/17 34/90/16 18/91/16 17/92/17
f 36/93/18 35/94/17 17/95/17 16/96/18
f 5/97/19 36/98/18 16/99/18 8/100/19
f 4/4/1 3/3/1 11/101/1 13/102/1 15/103/1
