# Blender v2.83.4 OBJ File: ''
# www.blender.org
mtllib 054.mtl
o roadTile_189.001
v 1.500000 0.550000 1.500000
v 1.500000 0.550000 0.750000
v -1.500000 1.650000 0.750000
v -1.500000 1.650000 1.500000
v 1.500000 0.000000 1.500000
v 1.500000 0.000000 0.750000
v 1.500000 0.455000 0.750000
v -1.500000 0.000000 -0.750000
v -1.500000 0.000000 -1.500000
v 1.500000 0.000000 -1.500000
v 1.500000 0.000000 -0.750000
v -1.500000 0.000000 1.500000
v -1.500000 0.000000 0.750000
v -1.500000 1.555000 -0.750000
v -1.500000 1.650000 -0.750000
v -1.500000 1.650000 -1.500000
v -1.500000 1.555000 0.750000
v 1.500000 0.455000 -0.750000
v 1.500000 0.550000 -0.750000
v 1.500000 0.550000 -1.500000
vt 0.000000 -2.627290
vt 0.750000 -2.627290
vt 0.750000 0.568020
vt 0.000000 0.568020
vt 0.000000 0.000000
vt 0.750000 0.000000
vt 0.750000 0.455000
vt 0.750000 0.550000
vt 0.000000 0.550000
vt -0.000000 2.250000
vt 0.000000 3.000000
vt -3.000000 3.000000
vt -3.000000 2.250000
vt -3.000000 0.750000
vt -3.000000 0.000000
vt -0.000000 0.000000
vt -0.000000 0.750000
vt -3.000000 0.000000
vt -2.250000 0.000000
vt -2.250000 1.555000
vt -2.250000 1.650000
vt -3.000000 1.650000
vt -0.750000 1.650000
vt -0.750000 1.555000
vt -0.750000 0.000000
vt 0.000000 1.650000
vt -0.000000 1.555000
vt -0.000000 1.650000
vt -3.000000 0.550000
vt -3.000000 0.455000
vt 2.250000 0.550000
vt 2.250000 0.455000
vt 2.250000 0.000000
vt 3.000000 0.000000
vt 3.000000 0.550000
vt 3.000000 0.455000
vt 3.000000 0.550000
vt 0.000000 1.650000
vt 0.000000 1.555000
vt 3.000000 0.568020
vt 2.250000 0.568020
vt 2.250000 -2.627290
vt 3.000000 -2.627290
vt -3.000000 -0.000000
vt -0.000000 -0.000000
vt -0.000000 1.650000
vt -3.000000 0.550000
vt 3.000000 -0.000000
vt 3.000000 0.550000
vt 2.250000 0.535316
vt 0.750000 0.535316
vt 0.750000 -2.659990
vt 2.250000 -2.659990
vn 0.3443 0.9389 0.0000
vn 1.0000 0.0000 0.0000
vn 0.0000 -1.0000 -0.0000
vn -1.0000 0.0000 0.0000
vn 0.0000 0.0000 -1.0000
vn -0.0000 -0.0000 1.0000
usemtl Grass.068
s 1
f 1/1/1 2/2/1 3/3/1 4/4/1
f 5/5/2 6/6/2 7/7/2 2/8/2 1/9/2
f 8/10/3 9/11/3 10/12/3 11/13/3 6/14/3 5/15/3 12/16/3 13/17/3
f 9/18/4 8/19/4 14/20/4 15/21/4 16/22/4
f 3/23/4 17/24/4 13/25/4 12/16/4 4/26/4
f 17/27/5 3/28/5 2/29/5 7/30/5
f 19/31/2 18/32/2 11/33/2 10/34/2 20/35/2
f 18/36/6 19/37/6 15/38/6 14/39/6
f 16/40/1 15/41/1 19/42/1 20/43/1
f 10/44/5 9/45/5 16/46/5 20/47/5
f 12/16/6 5/48/6 1/49/6 4/26/6
usemtl Water.031
f 8/19/4 13/25/4 17/24/4 14/20/4
f 14/50/1 17/51/1 7/52/1 18/53/1
f 6/6/2 11/33/2 18/32/2 7/7/2
