# Blender v2.83.4 OBJ File: ''
# www.blender.org
mtllib 056.mtl
o roadTile_195.001
v 1.500000 0.000000 1.500000
v -1.500000 0.000000 1.500000
v -1.500000 0.000000 0.750000
v -1.500000 0.000000 -0.750000
v -1.500000 0.000000 -1.500000
v 1.500000 0.000000 -1.500000
v 1.500000 0.000000 -0.750000
v 1.500000 0.000000 0.750000
v -1.500000 1.650000 1.500000
v 1.500000 1.650000 1.500000
v -1.500000 1.650000 0.750000
v -1.500000 0.455000 0.750000
v 1.500000 1.650000 0.750000
v 1.500000 0.455000 0.750000
v 1.500000 0.455000 -0.750000
v 1.500000 1.650000 -0.750000
v 1.500000 1.650000 -1.500000
v -1.500000 1.650000 -0.750000
v -1.500000 0.455000 -0.750000
v -1.500000 1.650000 -1.500000
vt -3.000000 0.000000
vt -0.000000 0.000000
vt -0.000000 0.750000
vt -0.000000 2.250000
vt -0.000000 3.000000
vt -3.000000 3.000000
vt -3.000000 2.250000
vt -3.000000 0.750000
vt 0.000000 1.650000
vt 3.000000 0.000000
vt 3.000000 1.650000
vt -0.750000 1.650000
vt -0.750000 0.455000
vt -0.750000 -0.000000
vt -0.000000 1.650000
vt -3.000000 1.650000
vt -3.000000 0.455000
vt -0.000000 0.455000
vt 3.000000 0.000000
vt 3.000000 0.750000
vt 0.000000 0.750000
vt 0.000000 -0.000000
vt 0.000000 0.000000
vt 0.750000 0.000000
vt 0.750000 0.455000
vt 0.750000 1.650000
vt 0.000000 1.650000
vt 2.250000 1.650000
vt 2.250000 0.455000
vt 2.250000 0.000000
vt 3.000000 0.000000
vt 3.000000 1.650000
vt 3.000000 1.650000
vt 0.000000 1.650000
vt 0.000000 0.455000
vt 3.000000 0.455000
vt -0.000000 3.000000
vt 0.000000 2.250000
vt 3.000000 2.250000
vt 3.000000 3.000000
vt -3.000000 0.000000
vt -2.250000 0.000000
vt -2.250000 0.455000
vt -2.250000 1.650000
vt -3.000000 1.650000
vt -3.000000 1.650000
vt -3.000000 0.000000
vt -0.000000 0.000000
vt -0.000000 1.650000
vt 0.000000 2.250000
vt 0.000000 0.750000
vt 3.000000 0.750000
vt 3.000000 2.250000
vn 0.0000 -1.0000 -0.0000
vn 0.0000 -0.0000 1.0000
vn -1.0000 0.0000 0.0000
vn 0.0000 0.0000 -1.0000
vn 0.0000 1.0000 0.0000
vn 1.0000 0.0000 0.0000
usemtl Grass.070
s 1
f 1/1/1 2/2/1 3/3/1 4/4/1 5/5/1 6/6/1 7/7/1 8/8/1
f 9/9/2 2/2/2 1/10/2 10/11/2
f 11/12/3 12/13/3 3/14/3 2/2/3 9/9/3
f 11/15/4 13/16/4 14/17/4 12/18/4
f 10/19/5 13/20/5 11/21/5 9/22/5
f 1/23/6 8/24/6 14/25/6 13/26/6 10/27/6
f 16/28/6 15/29/6 7/30/6 6/31/6 17/32/6
f 16/33/2 18/34/2 19/35/2 15/36/2
f 20/37/5 18/38/5 16/39/5 17/40/5
f 5/41/3 4/42/3 19/43/3 18/44/3 20/45/3
f 17/46/4 6/47/4 5/48/4 20/49/4
usemtl Water.033
f 8/24/6 7/30/6 15/29/6 14/25/6
f 4/42/3 3/14/3 12/13/3 19/43/3
f 19/50/5 12/51/5 14/52/5 15/53/5
