# Blender v2.83.4 OBJ File: ''
# www.blender.org
mtllib 057.mtl
o roadTile_196.001
v 1.500000 0.455000 -0.750000
v -1.500000 0.455000 -0.750000
v -1.500000 0.455000 0.750000
v 1.500000 0.455000 0.750000
v 1.500000 0.550000 -0.750000
v -1.500000 1.650000 -0.750000
v 1.500000 0.000000 -0.750000
v 1.500000 0.000000 -1.500000
v 1.500000 0.550000 -1.500000
v 1.500000 0.000000 0.750000
v -1.500000 0.000000 -0.750000
v -1.500000 0.000000 -1.500000
v 1.500000 0.000000 1.500000
v -1.500000 0.000000 1.500000
v -1.500000 0.000000 0.750000
v -1.500000 1.650000 -1.500000
v -1.500000 1.650000 0.750000
v -1.500000 1.650000 1.500000
v 1.500000 0.550000 0.750000
v 1.500000 0.550000 1.500000
vt 3.000000 2.250000
vt 0.000000 2.250000
vt 0.000000 0.750000
vt 3.000000 0.750000
vt 0.750000 -0.000000
vt 2.250000 -0.000000
vt 2.250000 0.455000
vt 0.750000 0.455000
vt -2.250000 0.000000
vt -0.750000 0.000000
vt -0.750000 0.455000
vt -2.250000 0.455000
vt 0.000000 0.455000
vt 3.000000 0.455000
vt 3.000000 0.550000
vt 0.000000 1.650000
vt 2.250000 0.550000
vt 3.000000 -0.000000
vt 3.000000 0.550000
vt -0.000000 2.250000
vt 0.000000 3.000000
vt -3.000000 3.000000
vt -3.000000 2.250000
vt -3.000000 0.750000
vt -3.000000 0.000000
vt -0.000000 0.000000
vt -0.000000 0.750000
vt -3.000000 0.000000
vt -2.250000 1.650000
vt -3.000000 1.650000
vt -0.750000 1.650000
vt 0.000000 1.650000
vt -3.000000 0.455000
vt -0.000000 0.455000
vt -0.000000 1.650000
vt -3.000000 0.550000
vt -0.000000 -2.627290
vt 0.750000 -2.627290
vt 0.750000 0.568020
vt -0.000000 0.568020
vt -0.000000 -0.000000
vt 0.750000 0.550000
vt -0.000000 0.550000
vt 3.000000 -0.000000
vt 3.000000 0.550000
vt 3.000000 0.568020
vt 2.250000 0.568020
vt 2.250000 -2.627290
vt 3.000000 -2.627290
vt -3.000000 -0.000000
vt -0.000000 -0.000000
vt -0.000000 1.650000
vt -3.000000 0.550000
vn 0.0000 1.0000 0.0000
vn 1.0000 0.0000 0.0000
vn -1.0000 0.0000 0.0000
vn -0.0000 -0.0000 1.0000
vn 0.0000 -1.0000 -0.0000
vn 0.0000 0.0000 -1.0000
vn 0.3443 0.9389 0.0000
usemtl Water.034
s 1
f 1/1/1 2/2/1 3/3/1 4/4/1
f 10/5/2 7/6/2 1/7/2 4/8/2
f 11/9/3 15/10/3 3/11/3 2/12/3
usemtl Grass.071
f 2/13/4 1/14/4 5/15/4 6/16/4
f 5/17/2 1/7/2 7/6/2 8/18/2 9/19/2
f 11/20/5 12/21/5 8/22/5 7/23/5 10/24/5 13/25/5 14/26/5 15/27/5
f 12/28/3 11/9/3 2/12/3 6/29/3 16/30/3
f 17/31/3 3/11/3 15/10/3 14/26/3 18/32/3
f 4/33/6 3/34/6 17/35/6 19/36/6
f 20/37/7 19/38/7 17/39/7 18/40/7
f 13/41/2 10/5/2 4/8/2 19/42/2 20/43/2
f 14/26/4 13/44/4 20/45/4 18/32/4
f 16/46/7 6/47/7 5/48/7 9/49/7
f 8/50/6 12/51/6 16/52/6 9/53/6
