# Blender v2.83.4 OBJ File: ''
# www.blender.org
mtllib 001.mtl
o roadTile_002
v -1.500000 0.315000 1.500000
v -1.500000 -0.315000 1.500000
v 1.500000 -0.315000 1.500000
v 1.500000 0.315000 1.500000
v -1.500000 -0.315000 -1.500000
v -1.500000 0.315000 -1.500000
v 1.500000 -0.315000 -1.500000
v 1.500000 0.315000 -1.500000
vt 0.000000 0.630000
vt 0.000000 0.000000
vt 3.000000 0.000000
vt 3.000000 0.630000
vt -3.000000 0.000000
vt -3.000000 0.630000
vt -3.000000 0.000000
vt 0.000000 3.000000
vt -3.000000 3.000000
vt -3.000000 0.630000
vt -3.000000 0.000000
vt -0.000000 0.000000
vt -0.000000 0.630000
vt -0.000000 -0.000000
vt 3.000000 -0.000000
vt 3.000000 0.630000
vt -0.000000 0.630000
vt 0.000000 3.000000
vt 0.000000 -0.000000
vt 3.000000 0.000000
vt 3.000000 3.000000
vn 0.0000 0.0000 1.0000
vn -1.0000 0.0000 0.0000
vn 0.0000 -1.0000 -0.0000
vn 0.0000 0.0000 -1.0000
vn 1.0000 0.0000 0.0000
vn 0.0000 1.0000 0.0000
usemtl Stone
s 1
f 1/1/1 2/2/1 3/3/1 4/4/1
f 5/5/2 2/2/2 1/1/2 6/6/2
f 3/7/3 2/2/3 5/8/3 7/9/3
f 8/10/4 7/11/4 5/12/4 6/13/4
f 3/14/5 7/15/5 8/16/5 4/17/5
f 6/18/6 1/19/6 4/20/6 8/21/6
